<mxfile host="app.diagrams.net" modified="2024-03-01T19:03:18.548Z" agent="Mozilla/5.0 (Windows NT 10.0; Win64; x64; rv:123.0) Gecko/20100101 Firefox/123.0" etag="cgPNRKvYZFln1yxqC4_9" version="22.1.22" type="github">
  <diagram name="Page-1" id="c7558073-3199-34d8-9f00-42111426c3f3">
    <mxGraphModel dx="1434" dy="754" grid="1" gridSize="10" guides="1" tooltips="1" connect="1" arrows="1" fold="1" page="1" pageScale="1" pageWidth="826" pageHeight="1169" background="none" math="0" shadow="0">
      <root>
        <mxCell id="0" />
        <mxCell id="1" parent="0" />
        <mxCell id="QcB2zM1-t8FcybYRszrE-96" value="" style="edgeStyle=none;rounded=0;jumpStyle=none;html=1;shadow=0;labelBackgroundColor=none;startArrow=none;startFill=0;endArrow=classic;endFill=1;jettySize=auto;orthogonalLoop=1;strokeColor=#2F5B7C;strokeWidth=3;fontFamily=Helvetica;fontSize=16;fontColor=#23445D;spacing=5;" edge="1" parent="1" source="QcB2zM1-t8FcybYRszrE-100" target="QcB2zM1-t8FcybYRszrE-115">
          <mxGeometry relative="1" as="geometry" />
        </mxCell>
        <mxCell id="QcB2zM1-t8FcybYRszrE-97" value="" style="edgeStyle=none;rounded=0;jumpStyle=none;html=1;shadow=0;labelBackgroundColor=none;startArrow=none;startFill=0;endArrow=classic;endFill=1;jettySize=auto;orthogonalLoop=1;strokeColor=#2F5B7C;strokeWidth=3;fontFamily=Helvetica;fontSize=16;fontColor=#23445D;spacing=5;" edge="1" parent="1" source="QcB2zM1-t8FcybYRszrE-100" target="QcB2zM1-t8FcybYRszrE-122">
          <mxGeometry relative="1" as="geometry" />
        </mxCell>
        <mxCell id="QcB2zM1-t8FcybYRszrE-99" value="" style="edgeStyle=none;rounded=0;jumpStyle=none;html=1;shadow=0;labelBackgroundColor=none;startArrow=none;startFill=0;endArrow=classic;endFill=1;jettySize=auto;orthogonalLoop=1;strokeColor=#2F5B7C;strokeWidth=3;fontFamily=Helvetica;fontSize=16;fontColor=#23445D;spacing=5;" edge="1" parent="1" source="QcB2zM1-t8FcybYRszrE-100" target="QcB2zM1-t8FcybYRszrE-104">
          <mxGeometry relative="1" as="geometry" />
        </mxCell>
        <mxCell id="QcB2zM1-t8FcybYRszrE-100" value="RFP-1415" style="rounded=1;whiteSpace=wrap;html=1;shadow=0;labelBackgroundColor=none;strokeColor=none;strokeWidth=3;fillColor=#2F5B7C;fontFamily=Helvetica;fontSize=16;fontColor=#FFFFFF;align=center;fontStyle=1;spacing=5;arcSize=7;perimeterSpacing=2;" vertex="1" parent="1">
          <mxGeometry x="501" y="350" width="150" height="70" as="geometry" />
        </mxCell>
        <mxCell id="QcB2zM1-t8FcybYRszrE-101" value="" style="edgeStyle=none;rounded=1;jumpStyle=none;html=1;shadow=0;labelBackgroundColor=none;startArrow=none;startFill=0;jettySize=auto;orthogonalLoop=1;strokeColor=#E85642;strokeWidth=3;fontFamily=Helvetica;fontSize=14;fontColor=#FFFFFF;spacing=5;fontStyle=1;fillColor=#b0e3e6;" edge="1" parent="1" source="QcB2zM1-t8FcybYRszrE-104" target="QcB2zM1-t8FcybYRszrE-107">
          <mxGeometry relative="1" as="geometry" />
        </mxCell>
        <mxCell id="QcB2zM1-t8FcybYRszrE-102" value="" style="edgeStyle=none;rounded=1;jumpStyle=none;html=1;shadow=0;labelBackgroundColor=none;startArrow=none;startFill=0;jettySize=auto;orthogonalLoop=1;strokeColor=#E85642;strokeWidth=3;fontFamily=Helvetica;fontSize=14;fontColor=#FFFFFF;spacing=5;fontStyle=1;fillColor=#b0e3e6;" edge="1" parent="1" source="QcB2zM1-t8FcybYRszrE-104" target="QcB2zM1-t8FcybYRszrE-106">
          <mxGeometry relative="1" as="geometry" />
        </mxCell>
        <mxCell id="QcB2zM1-t8FcybYRszrE-103" value="" style="edgeStyle=none;rounded=1;jumpStyle=none;html=1;shadow=0;labelBackgroundColor=none;startArrow=none;startFill=0;jettySize=auto;orthogonalLoop=1;strokeColor=#E85642;strokeWidth=3;fontFamily=Helvetica;fontSize=14;fontColor=#FFFFFF;spacing=5;fontStyle=1;fillColor=#b0e3e6;" edge="1" parent="1" source="QcB2zM1-t8FcybYRszrE-104" target="QcB2zM1-t8FcybYRszrE-105">
          <mxGeometry relative="1" as="geometry" />
        </mxCell>
        <mxCell id="QcB2zM1-t8FcybYRszrE-104" value="Create budget message to send via whatsapp" style="rounded=1;whiteSpace=wrap;html=1;shadow=0;labelBackgroundColor=none;strokeColor=none;strokeWidth=3;fillColor=#e85642;fontFamily=Helvetica;fontSize=14;fontColor=#FFFFFF;align=center;spacing=5;fontStyle=1;arcSize=7;perimeterSpacing=2;" vertex="1" parent="1">
          <mxGeometry x="221" y="355" width="150" height="60" as="geometry" />
        </mxCell>
        <mxCell id="QcB2zM1-t8FcybYRszrE-105" value="Check if client phone number is valid" style="rounded=1;whiteSpace=wrap;html=1;shadow=0;labelBackgroundColor=none;strokeColor=none;strokeWidth=3;fillColor=#f08e81;fontFamily=Helvetica;fontSize=14;fontColor=#FFFFFF;align=center;spacing=5;fontStyle=0;arcSize=7;perimeterSpacing=2;" vertex="1" parent="1">
          <mxGeometry x="71" y="474" width="150" height="60" as="geometry" />
        </mxCell>
        <mxCell id="QcB2zM1-t8FcybYRszrE-106" value="After each budget has been done send a message via whatsapp to client" style="rounded=1;whiteSpace=wrap;html=1;shadow=0;labelBackgroundColor=none;strokeColor=none;strokeWidth=3;fillColor=#f08e81;fontFamily=Helvetica;fontSize=14;fontColor=#FFFFFF;align=center;spacing=5;fontStyle=0;arcSize=7;perimeterSpacing=2;" vertex="1" parent="1">
          <mxGeometry x="20" y="355" width="150" height="75" as="geometry" />
        </mxCell>
        <mxCell id="QcB2zM1-t8FcybYRszrE-107" value="Create parameters as needed to send message" style="rounded=1;whiteSpace=wrap;html=1;shadow=0;labelBackgroundColor=none;strokeColor=none;strokeWidth=3;fillColor=#f08e81;fontFamily=Helvetica;fontSize=14;fontColor=#FFFFFF;align=center;spacing=5;fontStyle=0;arcSize=7;perimeterSpacing=2;" vertex="1" parent="1">
          <mxGeometry x="71" y="224" width="150" height="60" as="geometry" />
        </mxCell>
        <mxCell id="QcB2zM1-t8FcybYRszrE-115" value="PEC PBM" style="rounded=1;whiteSpace=wrap;html=1;shadow=0;labelBackgroundColor=none;strokeColor=none;strokeWidth=3;fillColor=#F08705;fontFamily=Helvetica;fontSize=14;fontColor=#FFFFFF;align=center;spacing=5;fontStyle=1;arcSize=7;perimeterSpacing=2;" vertex="1" parent="1">
          <mxGeometry x="501" y="170" width="150" height="60" as="geometry" />
        </mxCell>
        <mxCell id="QcB2zM1-t8FcybYRszrE-116" value="Fix to validate CRM when doing a PEC PBM sell" style="rounded=1;whiteSpace=wrap;html=1;shadow=0;labelBackgroundColor=none;strokeColor=none;strokeWidth=3;fillColor=#f5af58;fontFamily=Helvetica;fontSize=14;fontColor=#FFFFFF;align=center;spacing=5;arcSize=7;perimeterSpacing=2;" vertex="1" parent="1">
          <mxGeometry x="701" y="80" width="150" height="60" as="geometry" />
        </mxCell>
        <mxCell id="QcB2zM1-t8FcybYRszrE-117" value="" style="edgeStyle=none;rounded=0;jumpStyle=none;html=1;shadow=0;labelBackgroundColor=none;startArrow=none;startFill=0;endArrow=classic;endFill=1;jettySize=auto;orthogonalLoop=1;strokeColor=#F08705;strokeWidth=3;fontFamily=Helvetica;fontSize=14;fontColor=#FFFFFF;spacing=5;" edge="1" parent="1" source="QcB2zM1-t8FcybYRszrE-115" target="QcB2zM1-t8FcybYRszrE-116">
          <mxGeometry relative="1" as="geometry" />
        </mxCell>
        <mxCell id="QcB2zM1-t8FcybYRszrE-122" value="ADM Whatsapp" style="rounded=1;whiteSpace=wrap;html=1;shadow=0;labelBackgroundColor=none;strokeColor=none;strokeWidth=3;fillColor=#12aab5;fontFamily=Helvetica;fontSize=14;fontColor=#FFFFFF;align=center;spacing=5;fontStyle=1;arcSize=7;perimeterSpacing=2;" vertex="1" parent="1">
          <mxGeometry x="801" y="354.9999999999999" width="150" height="60" as="geometry" />
        </mxCell>
        <mxCell id="QcB2zM1-t8FcybYRszrE-125" value="Added a message to inform if client select to send message is not allocated at company that being used" style="rounded=1;whiteSpace=wrap;html=1;shadow=0;labelBackgroundColor=none;strokeColor=none;strokeWidth=3;fillColor=#61c6ce;fontFamily=Helvetica;fontSize=14;fontColor=#FFFFFF;align=center;spacing=5;fontStyle=0;arcSize=7;perimeterSpacing=2;" vertex="1" parent="1">
          <mxGeometry x="1020" y="420" width="150" height="100" as="geometry" />
        </mxCell>
        <mxCell id="QcB2zM1-t8FcybYRszrE-126" value="" style="edgeStyle=none;rounded=1;jumpStyle=none;html=1;shadow=0;labelBackgroundColor=none;startArrow=none;startFill=0;jettySize=auto;orthogonalLoop=1;strokeColor=#12AAB5;strokeWidth=3;fontFamily=Helvetica;fontSize=14;fontColor=#FFFFFF;spacing=5;fontStyle=1;fillColor=#b0e3e6;" edge="1" parent="1" source="QcB2zM1-t8FcybYRszrE-122" target="QcB2zM1-t8FcybYRszrE-125">
          <mxGeometry relative="1" as="geometry" />
        </mxCell>
        <mxCell id="QcB2zM1-t8FcybYRszrE-127" value="When click to use browser Edge or Chrome always download right webdriver and use it" style="rounded=1;whiteSpace=wrap;html=1;shadow=0;labelBackgroundColor=none;strokeColor=none;strokeWidth=3;fillColor=#61c6ce;fontFamily=Helvetica;fontSize=14;fontColor=#FFFFFF;align=center;spacing=5;fontStyle=0;arcSize=7;perimeterSpacing=2;" vertex="1" parent="1">
          <mxGeometry x="1040" y="310" width="150" height="90" as="geometry" />
        </mxCell>
        <mxCell id="QcB2zM1-t8FcybYRszrE-128" value="" style="edgeStyle=none;rounded=1;jumpStyle=none;html=1;shadow=0;labelBackgroundColor=none;startArrow=none;startFill=0;jettySize=auto;orthogonalLoop=1;strokeColor=#12AAB5;strokeWidth=3;fontFamily=Helvetica;fontSize=14;fontColor=#FFFFFF;spacing=5;fontStyle=1;fillColor=#b0e3e6;" edge="1" parent="1" source="QcB2zM1-t8FcybYRszrE-122" target="QcB2zM1-t8FcybYRszrE-127">
          <mxGeometry relative="1" as="geometry" />
        </mxCell>
        <mxCell id="QcB2zM1-t8FcybYRszrE-129" value="Don&#39;t delete lines on configuraçãoWhatsapp at database, only inactive them with a bollean property, soft delete" style="rounded=1;whiteSpace=wrap;html=1;shadow=0;labelBackgroundColor=none;strokeColor=none;strokeWidth=3;fillColor=#61c6ce;fontFamily=Helvetica;fontSize=14;fontColor=#FFFFFF;align=center;spacing=5;fontStyle=0;arcSize=7;perimeterSpacing=2;" vertex="1" parent="1">
          <mxGeometry x="881" y="214" width="150" height="106" as="geometry" />
        </mxCell>
        <mxCell id="QcB2zM1-t8FcybYRszrE-130" value="" style="edgeStyle=none;rounded=1;jumpStyle=none;html=1;shadow=0;labelBackgroundColor=none;startArrow=none;startFill=0;jettySize=auto;orthogonalLoop=1;strokeColor=#12AAB5;strokeWidth=3;fontFamily=Helvetica;fontSize=14;fontColor=#FFFFFF;spacing=5;fontStyle=1;fillColor=#b0e3e6;" edge="1" parent="1" source="QcB2zM1-t8FcybYRszrE-122" target="QcB2zM1-t8FcybYRszrE-129">
          <mxGeometry relative="1" as="geometry" />
        </mxCell>
        <mxCell id="QcB2zM1-t8FcybYRszrE-133" value="" style="edgeStyle=none;rounded=0;jumpStyle=none;html=1;shadow=0;labelBackgroundColor=none;startArrow=none;startFill=0;endArrow=classic;endFill=1;jettySize=auto;orthogonalLoop=1;strokeColor=#F08705;strokeWidth=3;fontFamily=Helvetica;fontSize=14;fontColor=#FFFFFF;spacing=5;exitX=0;exitY=0;exitDx=0;exitDy=0;" edge="1" parent="1" source="QcB2zM1-t8FcybYRszrE-115">
          <mxGeometry relative="1" as="geometry">
            <mxPoint x="470" y="140" as="sourcePoint" />
            <mxPoint x="440" y="140" as="targetPoint" />
          </mxGeometry>
        </mxCell>
        <mxCell id="QcB2zM1-t8FcybYRszrE-134" value="If the PBM is PEC fill CRM with random numbers" style="rounded=1;whiteSpace=wrap;html=1;shadow=0;labelBackgroundColor=none;strokeColor=none;strokeWidth=3;fillColor=#f5af58;fontFamily=Helvetica;fontSize=14;fontColor=#FFFFFF;align=center;spacing=5;arcSize=7;perimeterSpacing=2;" vertex="1" parent="1">
          <mxGeometry x="338" y="70" width="150" height="60" as="geometry" />
        </mxCell>
      </root>
    </mxGraphModel>
  </diagram>
</mxfile>
